<mxfile host="drawio-plugin" modified="2021-07-09T17:31:18.894Z" agent="5.0 (Macintosh; Intel Mac OS X 10_15_7) AppleWebKit/537.36 (KHTML, like Gecko) Chrome/87.0.4280.141 Safari/537.36" etag="a9mGFZ2-wD0dumkeTnB6" version="14.7.4" type="embed"><diagram id="R2lEEEUBdFMjLlhIrx00" name="Page-1"><mxGraphModel dx="1318" dy="305" grid="1" gridSize="10" guides="1" tooltips="1" connect="1" arrows="1" fold="1" page="1" pageScale="1" pageWidth="850" pageHeight="1100" math="0" shadow="0" extFonts="Permanent Marker^https://fonts.googleapis.com/css?family=Permanent+Marker"><root><mxCell id="0"/><mxCell id="1" parent="0"/><mxCell id="C-vyLk0tnHw3VtMMgP7b-2" value="Movie" style="shape=table;startSize=30;container=1;collapsible=1;childLayout=tableLayout;fixedRows=1;rowLines=0;fontStyle=1;align=center;resizeLast=1;" parent="1" vertex="1"><mxGeometry x="370" y="320" width="250" height="310" as="geometry"/></mxCell><mxCell id="C-vyLk0tnHw3VtMMgP7b-3" value="" style="shape=partialRectangle;collapsible=0;dropTarget=0;pointerEvents=0;fillColor=none;points=[[0,0.5],[1,0.5]];portConstraint=eastwest;top=0;left=0;right=0;bottom=1;" parent="C-vyLk0tnHw3VtMMgP7b-2" vertex="1"><mxGeometry y="30" width="250" height="30" as="geometry"/></mxCell><mxCell id="C-vyLk0tnHw3VtMMgP7b-4" value="PK" style="shape=partialRectangle;overflow=hidden;connectable=0;fillColor=none;top=0;left=0;bottom=0;right=0;fontStyle=1;" parent="C-vyLk0tnHw3VtMMgP7b-3" vertex="1"><mxGeometry width="30" height="30" as="geometry"/></mxCell><mxCell id="C-vyLk0tnHw3VtMMgP7b-5" value="movie_id int" style="shape=partialRectangle;overflow=hidden;connectable=0;fillColor=none;top=0;left=0;bottom=0;right=0;align=left;spacingLeft=6;fontStyle=5;" parent="C-vyLk0tnHw3VtMMgP7b-3" vertex="1"><mxGeometry x="30" width="220" height="30" as="geometry"/></mxCell><mxCell id="2dVK3EyHXPsoAWl7GfPl-23" value="" style="shape=partialRectangle;collapsible=0;dropTarget=0;pointerEvents=0;fillColor=none;points=[[0,0.5],[1,0.5]];portConstraint=eastwest;top=0;left=0;right=0;bottom=0;" parent="C-vyLk0tnHw3VtMMgP7b-2" vertex="1"><mxGeometry y="60" width="250" height="30" as="geometry"/></mxCell><mxCell id="2dVK3EyHXPsoAWl7GfPl-24" value="FK" style="shape=partialRectangle;overflow=hidden;connectable=0;fillColor=none;top=0;left=0;bottom=0;right=0;fontStyle=1" parent="2dVK3EyHXPsoAWl7GfPl-23" vertex="1"><mxGeometry width="30" height="30" as="geometry"/></mxCell><mxCell id="2dVK3EyHXPsoAWl7GfPl-25" value="genre_id int NOT NULL" style="shape=partialRectangle;overflow=hidden;connectable=0;fillColor=none;top=0;left=0;bottom=0;right=0;align=left;spacingLeft=6;" parent="2dVK3EyHXPsoAWl7GfPl-23" vertex="1"><mxGeometry x="30" width="220" height="30" as="geometry"/></mxCell><mxCell id="2dVK3EyHXPsoAWl7GfPl-19" value="" style="shape=partialRectangle;collapsible=0;dropTarget=0;pointerEvents=0;fillColor=none;points=[[0,0.5],[1,0.5]];portConstraint=eastwest;top=0;left=0;right=0;bottom=0;" parent="C-vyLk0tnHw3VtMMgP7b-2" vertex="1"><mxGeometry y="90" width="250" height="30" as="geometry"/></mxCell><mxCell id="2dVK3EyHXPsoAWl7GfPl-20" value="FK" style="shape=partialRectangle;overflow=hidden;connectable=0;fillColor=none;top=0;left=0;bottom=0;right=0;fontStyle=1" parent="2dVK3EyHXPsoAWl7GfPl-19" vertex="1"><mxGeometry width="30" height="30" as="geometry"/></mxCell><mxCell id="2dVK3EyHXPsoAWl7GfPl-21" value="director_id int NOT NULL" style="shape=partialRectangle;overflow=hidden;connectable=0;fillColor=none;top=0;left=0;bottom=0;right=0;align=left;spacingLeft=6;" parent="2dVK3EyHXPsoAWl7GfPl-19" vertex="1"><mxGeometry x="30" width="220" height="30" as="geometry"/></mxCell><mxCell id="2dVK3EyHXPsoAWl7GfPl-26" value="" style="shape=partialRectangle;collapsible=0;dropTarget=0;pointerEvents=0;fillColor=none;points=[[0,0.5],[1,0.5]];portConstraint=eastwest;top=0;left=0;right=0;bottom=0;" parent="C-vyLk0tnHw3VtMMgP7b-2" vertex="1"><mxGeometry y="120" width="250" height="30" as="geometry"/></mxCell><mxCell id="2dVK3EyHXPsoAWl7GfPl-27" value="FK" style="shape=partialRectangle;overflow=hidden;connectable=0;fillColor=none;top=0;left=0;bottom=0;right=0;fontStyle=1" parent="2dVK3EyHXPsoAWl7GfPl-26" vertex="1"><mxGeometry width="30" height="30" as="geometry"/></mxCell><mxCell id="2dVK3EyHXPsoAWl7GfPl-28" value="user_id int NOT NULL" style="shape=partialRectangle;overflow=hidden;connectable=0;fillColor=none;top=0;left=0;bottom=0;right=0;align=left;spacingLeft=6;" parent="2dVK3EyHXPsoAWl7GfPl-26" vertex="1"><mxGeometry x="30" width="220" height="30" as="geometry"/></mxCell><mxCell id="C-vyLk0tnHw3VtMMgP7b-9" value="" style="shape=partialRectangle;collapsible=0;dropTarget=0;pointerEvents=0;fillColor=none;points=[[0,0.5],[1,0.5]];portConstraint=eastwest;top=0;left=0;right=0;bottom=0;" parent="C-vyLk0tnHw3VtMMgP7b-2" vertex="1"><mxGeometry y="150" width="250" height="30" as="geometry"/></mxCell><mxCell id="C-vyLk0tnHw3VtMMgP7b-10" value="" style="shape=partialRectangle;overflow=hidden;connectable=0;fillColor=none;top=0;left=0;bottom=0;right=0;fontStyle=1" parent="C-vyLk0tnHw3VtMMgP7b-9" vertex="1"><mxGeometry width="30" height="30" as="geometry"/></mxCell><mxCell id="C-vyLk0tnHw3VtMMgP7b-11" value="date date NOT NULL" style="shape=partialRectangle;overflow=hidden;connectable=0;fillColor=none;top=0;left=0;bottom=0;right=0;align=left;spacingLeft=6;" parent="C-vyLk0tnHw3VtMMgP7b-9" vertex="1"><mxGeometry x="30" width="220" height="30" as="geometry"/></mxCell><mxCell id="C-vyLk0tnHw3VtMMgP7b-6" value="" style="shape=partialRectangle;collapsible=0;dropTarget=0;pointerEvents=0;fillColor=none;points=[[0,0.5],[1,0.5]];portConstraint=eastwest;top=0;left=0;right=0;bottom=0;" parent="C-vyLk0tnHw3VtMMgP7b-2" vertex="1"><mxGeometry y="180" width="250" height="30" as="geometry"/></mxCell><mxCell id="C-vyLk0tnHw3VtMMgP7b-7" value="" style="shape=partialRectangle;overflow=hidden;connectable=0;fillColor=none;top=0;left=0;bottom=0;right=0;" parent="C-vyLk0tnHw3VtMMgP7b-6" vertex="1"><mxGeometry width="30" height="30" as="geometry"/></mxCell><mxCell id="C-vyLk0tnHw3VtMMgP7b-8" value="name varchar(50) NOT NULL" style="shape=partialRectangle;overflow=hidden;connectable=0;fillColor=none;top=0;left=0;bottom=0;right=0;align=left;spacingLeft=6;" parent="C-vyLk0tnHw3VtMMgP7b-6" vertex="1"><mxGeometry x="30" width="220" height="30" as="geometry"/></mxCell><mxCell id="2dVK3EyHXPsoAWl7GfPl-30" value="" style="shape=partialRectangle;collapsible=0;dropTarget=0;pointerEvents=0;fillColor=none;points=[[0,0.5],[1,0.5]];portConstraint=eastwest;top=0;left=0;right=0;bottom=0;" parent="C-vyLk0tnHw3VtMMgP7b-2" vertex="1"><mxGeometry y="210" width="250" height="30" as="geometry"/></mxCell><mxCell id="2dVK3EyHXPsoAWl7GfPl-31" value="" style="shape=partialRectangle;overflow=hidden;connectable=0;fillColor=none;top=0;left=0;bottom=0;right=0;" parent="2dVK3EyHXPsoAWl7GfPl-30" vertex="1"><mxGeometry width="30" height="30" as="geometry"/></mxCell><mxCell id="2dVK3EyHXPsoAWl7GfPl-32" value="description text" style="shape=partialRectangle;overflow=hidden;connectable=0;fillColor=none;top=0;left=0;bottom=0;right=0;align=left;spacingLeft=6;" parent="2dVK3EyHXPsoAWl7GfPl-30" vertex="1"><mxGeometry x="30" width="220" height="30" as="geometry"/></mxCell><mxCell id="2dVK3EyHXPsoAWl7GfPl-33" value="" style="shape=partialRectangle;collapsible=0;dropTarget=0;pointerEvents=0;fillColor=none;points=[[0,0.5],[1,0.5]];portConstraint=eastwest;top=0;left=0;right=0;bottom=0;" parent="C-vyLk0tnHw3VtMMgP7b-2" vertex="1"><mxGeometry y="240" width="250" height="30" as="geometry"/></mxCell><mxCell id="2dVK3EyHXPsoAWl7GfPl-34" value="" style="shape=partialRectangle;overflow=hidden;connectable=0;fillColor=none;top=0;left=0;bottom=0;right=0;" parent="2dVK3EyHXPsoAWl7GfPl-33" vertex="1"><mxGeometry width="30" height="30" as="geometry"/></mxCell><mxCell id="2dVK3EyHXPsoAWl7GfPl-35" value="rating int NOT NULL" style="shape=partialRectangle;overflow=hidden;connectable=0;fillColor=none;top=0;left=0;bottom=0;right=0;align=left;spacingLeft=6;" parent="2dVK3EyHXPsoAWl7GfPl-33" vertex="1"><mxGeometry x="30" width="220" height="30" as="geometry"/></mxCell><mxCell id="2dVK3EyHXPsoAWl7GfPl-36" value="" style="shape=partialRectangle;collapsible=0;dropTarget=0;pointerEvents=0;fillColor=none;points=[[0,0.5],[1,0.5]];portConstraint=eastwest;top=0;left=0;right=0;bottom=0;" parent="C-vyLk0tnHw3VtMMgP7b-2" vertex="1"><mxGeometry y="270" width="250" height="30" as="geometry"/></mxCell><mxCell id="2dVK3EyHXPsoAWl7GfPl-37" value="" style="shape=partialRectangle;overflow=hidden;connectable=0;fillColor=none;top=0;left=0;bottom=0;right=0;" parent="2dVK3EyHXPsoAWl7GfPl-36" vertex="1"><mxGeometry width="30" height="30" as="geometry"/></mxCell><mxCell id="2dVK3EyHXPsoAWl7GfPl-38" value="poster_url varchar(100) NOT NULL" style="shape=partialRectangle;overflow=hidden;connectable=0;fillColor=none;top=0;left=0;bottom=0;right=0;align=left;spacingLeft=6;" parent="2dVK3EyHXPsoAWl7GfPl-36" vertex="1"><mxGeometry x="30" width="220" height="30" as="geometry"/></mxCell><mxCell id="C-vyLk0tnHw3VtMMgP7b-13" value="Director" style="shape=table;startSize=30;container=1;collapsible=1;childLayout=tableLayout;fixedRows=1;rowLines=0;fontStyle=1;align=center;resizeLast=1;" parent="1" vertex="1"><mxGeometry x="-50" y="200" width="250" height="130" as="geometry"/></mxCell><mxCell id="C-vyLk0tnHw3VtMMgP7b-14" value="" style="shape=partialRectangle;collapsible=0;dropTarget=0;pointerEvents=0;fillColor=none;points=[[0,0.5],[1,0.5]];portConstraint=eastwest;top=0;left=0;right=0;bottom=1;" parent="C-vyLk0tnHw3VtMMgP7b-13" vertex="1"><mxGeometry y="30" width="250" height="30" as="geometry"/></mxCell><mxCell id="C-vyLk0tnHw3VtMMgP7b-15" value="PK" style="shape=partialRectangle;overflow=hidden;connectable=0;fillColor=none;top=0;left=0;bottom=0;right=0;fontStyle=1;" parent="C-vyLk0tnHw3VtMMgP7b-14" vertex="1"><mxGeometry width="30" height="30" as="geometry"/></mxCell><mxCell id="C-vyLk0tnHw3VtMMgP7b-16" value="director_id int" style="shape=partialRectangle;overflow=hidden;connectable=0;fillColor=none;top=0;left=0;bottom=0;right=0;align=left;spacingLeft=6;fontStyle=5;" parent="C-vyLk0tnHw3VtMMgP7b-14" vertex="1"><mxGeometry x="30" width="220" height="30" as="geometry"/></mxCell><mxCell id="C-vyLk0tnHw3VtMMgP7b-17" value="" style="shape=partialRectangle;collapsible=0;dropTarget=0;pointerEvents=0;fillColor=none;points=[[0,0.5],[1,0.5]];portConstraint=eastwest;top=0;left=0;right=0;bottom=0;" parent="C-vyLk0tnHw3VtMMgP7b-13" vertex="1"><mxGeometry y="60" width="250" height="30" as="geometry"/></mxCell><mxCell id="C-vyLk0tnHw3VtMMgP7b-18" value="" style="shape=partialRectangle;overflow=hidden;connectable=0;fillColor=none;top=0;left=0;bottom=0;right=0;" parent="C-vyLk0tnHw3VtMMgP7b-17" vertex="1"><mxGeometry width="30" height="30" as="geometry"/></mxCell><mxCell id="C-vyLk0tnHw3VtMMgP7b-19" value="f_name varchar(50) NOT NULL" style="shape=partialRectangle;overflow=hidden;connectable=0;fillColor=none;top=0;left=0;bottom=0;right=0;align=left;spacingLeft=6;" parent="C-vyLk0tnHw3VtMMgP7b-17" vertex="1"><mxGeometry x="30" width="220" height="30" as="geometry"/></mxCell><mxCell id="C-vyLk0tnHw3VtMMgP7b-20" value="" style="shape=partialRectangle;collapsible=0;dropTarget=0;pointerEvents=0;fillColor=none;points=[[0,0.5],[1,0.5]];portConstraint=eastwest;top=0;left=0;right=0;bottom=0;" parent="C-vyLk0tnHw3VtMMgP7b-13" vertex="1"><mxGeometry y="90" width="250" height="30" as="geometry"/></mxCell><mxCell id="C-vyLk0tnHw3VtMMgP7b-21" value="" style="shape=partialRectangle;overflow=hidden;connectable=0;fillColor=none;top=0;left=0;bottom=0;right=0;" parent="C-vyLk0tnHw3VtMMgP7b-20" vertex="1"><mxGeometry width="30" height="30" as="geometry"/></mxCell><mxCell id="C-vyLk0tnHw3VtMMgP7b-22" value="l_name varchar(50) NOT NULL" style="shape=partialRectangle;overflow=hidden;connectable=0;fillColor=none;top=0;left=0;bottom=0;right=0;align=left;spacingLeft=6;" parent="C-vyLk0tnHw3VtMMgP7b-20" vertex="1"><mxGeometry x="30" width="220" height="30" as="geometry"/></mxCell><mxCell id="C-vyLk0tnHw3VtMMgP7b-23" value="User" style="shape=table;startSize=30;container=1;collapsible=1;childLayout=tableLayout;fixedRows=1;rowLines=0;fontStyle=1;align=center;resizeLast=1;" parent="1" vertex="1"><mxGeometry x="-50" y="360" width="250" height="190" as="geometry"/></mxCell><mxCell id="C-vyLk0tnHw3VtMMgP7b-24" value="" style="shape=partialRectangle;collapsible=0;dropTarget=0;pointerEvents=0;fillColor=none;points=[[0,0.5],[1,0.5]];portConstraint=eastwest;top=0;left=0;right=0;bottom=1;" parent="C-vyLk0tnHw3VtMMgP7b-23" vertex="1"><mxGeometry y="30" width="250" height="30" as="geometry"/></mxCell><mxCell id="C-vyLk0tnHw3VtMMgP7b-25" value="PK" style="shape=partialRectangle;overflow=hidden;connectable=0;fillColor=none;top=0;left=0;bottom=0;right=0;fontStyle=1;" parent="C-vyLk0tnHw3VtMMgP7b-24" vertex="1"><mxGeometry width="30" height="30" as="geometry"/></mxCell><mxCell id="C-vyLk0tnHw3VtMMgP7b-26" value="user_id_id int" style="shape=partialRectangle;overflow=hidden;connectable=0;fillColor=none;top=0;left=0;bottom=0;right=0;align=left;spacingLeft=6;fontStyle=5;" parent="C-vyLk0tnHw3VtMMgP7b-24" vertex="1"><mxGeometry x="30" width="220" height="30" as="geometry"/></mxCell><mxCell id="C-vyLk0tnHw3VtMMgP7b-27" value="" style="shape=partialRectangle;collapsible=0;dropTarget=0;pointerEvents=0;fillColor=none;points=[[0,0.5],[1,0.5]];portConstraint=eastwest;top=0;left=0;right=0;bottom=0;" parent="C-vyLk0tnHw3VtMMgP7b-23" vertex="1"><mxGeometry y="60" width="250" height="30" as="geometry"/></mxCell><mxCell id="C-vyLk0tnHw3VtMMgP7b-28" value="" style="shape=partialRectangle;overflow=hidden;connectable=0;fillColor=none;top=0;left=0;bottom=0;right=0;" parent="C-vyLk0tnHw3VtMMgP7b-27" vertex="1"><mxGeometry width="30" height="30" as="geometry"/></mxCell><mxCell id="C-vyLk0tnHw3VtMMgP7b-29" value="email varchar(128) NOT NULL" style="shape=partialRectangle;overflow=hidden;connectable=0;fillColor=none;top=0;left=0;bottom=0;right=0;align=left;spacingLeft=6;" parent="C-vyLk0tnHw3VtMMgP7b-27" vertex="1"><mxGeometry x="30" width="220" height="30" as="geometry"/></mxCell><mxCell id="2dVK3EyHXPsoAWl7GfPl-1" value="" style="shape=partialRectangle;collapsible=0;dropTarget=0;pointerEvents=0;fillColor=none;points=[[0,0.5],[1,0.5]];portConstraint=eastwest;top=0;left=0;right=0;bottom=0;" parent="C-vyLk0tnHw3VtMMgP7b-23" vertex="1"><mxGeometry y="90" width="250" height="30" as="geometry"/></mxCell><mxCell id="2dVK3EyHXPsoAWl7GfPl-2" value="" style="shape=partialRectangle;overflow=hidden;connectable=0;fillColor=none;top=0;left=0;bottom=0;right=0;" parent="2dVK3EyHXPsoAWl7GfPl-1" vertex="1"><mxGeometry width="30" height="30" as="geometry"/></mxCell><mxCell id="2dVK3EyHXPsoAWl7GfPl-3" value="username varchar(50) NOT NULL" style="shape=partialRectangle;overflow=hidden;connectable=0;fillColor=none;top=0;left=0;bottom=0;right=0;align=left;spacingLeft=6;" parent="2dVK3EyHXPsoAWl7GfPl-1" vertex="1"><mxGeometry x="30" width="220" height="30" as="geometry"/></mxCell><mxCell id="2dVK3EyHXPsoAWl7GfPl-14" value="" style="shape=partialRectangle;collapsible=0;dropTarget=0;pointerEvents=0;fillColor=none;points=[[0,0.5],[1,0.5]];portConstraint=eastwest;top=0;left=0;right=0;bottom=0;" parent="C-vyLk0tnHw3VtMMgP7b-23" vertex="1"><mxGeometry y="120" width="250" height="30" as="geometry"/></mxCell><mxCell id="2dVK3EyHXPsoAWl7GfPl-15" value="" style="shape=partialRectangle;overflow=hidden;connectable=0;fillColor=none;top=0;left=0;bottom=0;right=0;" parent="2dVK3EyHXPsoAWl7GfPl-14" vertex="1"><mxGeometry width="30" height="30" as="geometry"/></mxCell><mxCell id="2dVK3EyHXPsoAWl7GfPl-16" value="is_admin boolean NOT NULL" style="shape=partialRectangle;overflow=hidden;connectable=0;fillColor=none;top=0;left=0;bottom=0;right=0;align=left;spacingLeft=6;" parent="2dVK3EyHXPsoAWl7GfPl-14" vertex="1"><mxGeometry x="30" width="220" height="30" as="geometry"/></mxCell><mxCell id="eWsdWhiDVpQXfwUBwrl5-1" value="" style="shape=partialRectangle;collapsible=0;dropTarget=0;pointerEvents=0;fillColor=none;points=[[0,0.5],[1,0.5]];portConstraint=eastwest;top=0;left=0;right=0;bottom=0;" parent="C-vyLk0tnHw3VtMMgP7b-23" vertex="1"><mxGeometry y="150" width="250" height="30" as="geometry"/></mxCell><mxCell id="eWsdWhiDVpQXfwUBwrl5-2" value="" style="shape=partialRectangle;overflow=hidden;connectable=0;fillColor=none;top=0;left=0;bottom=0;right=0;" parent="eWsdWhiDVpQXfwUBwrl5-1" vertex="1"><mxGeometry width="30" height="30" as="geometry"/></mxCell><mxCell id="eWsdWhiDVpQXfwUBwrl5-3" value="pass_hash varchar(128) NOT NULL" style="shape=partialRectangle;overflow=hidden;connectable=0;fillColor=none;top=0;left=0;bottom=0;right=0;align=left;spacingLeft=6;" parent="eWsdWhiDVpQXfwUBwrl5-1" vertex="1"><mxGeometry x="30" width="220" height="30" as="geometry"/></mxCell><mxCell id="2dVK3EyHXPsoAWl7GfPl-4" value="Genre" style="shape=table;startSize=30;container=1;collapsible=1;childLayout=tableLayout;fixedRows=1;rowLines=0;fontStyle=1;align=center;resizeLast=1;" parent="1" vertex="1"><mxGeometry x="-50" y="40" width="250" height="130" as="geometry"/></mxCell><mxCell id="2dVK3EyHXPsoAWl7GfPl-5" value="" style="shape=partialRectangle;collapsible=0;dropTarget=0;pointerEvents=0;fillColor=none;points=[[0,0.5],[1,0.5]];portConstraint=eastwest;top=0;left=0;right=0;bottom=1;" parent="2dVK3EyHXPsoAWl7GfPl-4" vertex="1"><mxGeometry y="30" width="250" height="30" as="geometry"/></mxCell><mxCell id="2dVK3EyHXPsoAWl7GfPl-6" value="PK" style="shape=partialRectangle;overflow=hidden;connectable=0;fillColor=none;top=0;left=0;bottom=0;right=0;fontStyle=1;" parent="2dVK3EyHXPsoAWl7GfPl-5" vertex="1"><mxGeometry width="30" height="30" as="geometry"/></mxCell><mxCell id="2dVK3EyHXPsoAWl7GfPl-7" value="genre_id int" style="shape=partialRectangle;overflow=hidden;connectable=0;fillColor=none;top=0;left=0;bottom=0;right=0;align=left;spacingLeft=6;fontStyle=5;" parent="2dVK3EyHXPsoAWl7GfPl-5" vertex="1"><mxGeometry x="30" width="220" height="30" as="geometry"/></mxCell><mxCell id="2dVK3EyHXPsoAWl7GfPl-8" value="" style="shape=partialRectangle;collapsible=0;dropTarget=0;pointerEvents=0;fillColor=none;points=[[0,0.5],[1,0.5]];portConstraint=eastwest;top=0;left=0;right=0;bottom=0;" parent="2dVK3EyHXPsoAWl7GfPl-4" vertex="1"><mxGeometry y="60" width="250" height="30" as="geometry"/></mxCell><mxCell id="2dVK3EyHXPsoAWl7GfPl-9" value="" style="shape=partialRectangle;overflow=hidden;connectable=0;fillColor=none;top=0;left=0;bottom=0;right=0;" parent="2dVK3EyHXPsoAWl7GfPl-8" vertex="1"><mxGeometry width="30" height="30" as="geometry"/></mxCell><mxCell id="2dVK3EyHXPsoAWl7GfPl-10" value="name varchar(50) NOT NULL" style="shape=partialRectangle;overflow=hidden;connectable=0;fillColor=none;top=0;left=0;bottom=0;right=0;align=left;spacingLeft=6;" parent="2dVK3EyHXPsoAWl7GfPl-8" vertex="1"><mxGeometry x="30" width="220" height="30" as="geometry"/></mxCell><mxCell id="2dVK3EyHXPsoAWl7GfPl-11" value="" style="shape=partialRectangle;collapsible=0;dropTarget=0;pointerEvents=0;fillColor=none;points=[[0,0.5],[1,0.5]];portConstraint=eastwest;top=0;left=0;right=0;bottom=0;" parent="2dVK3EyHXPsoAWl7GfPl-4" vertex="1"><mxGeometry y="90" width="250" height="30" as="geometry"/></mxCell><mxCell id="2dVK3EyHXPsoAWl7GfPl-12" value="" style="shape=partialRectangle;overflow=hidden;connectable=0;fillColor=none;top=0;left=0;bottom=0;right=0;" parent="2dVK3EyHXPsoAWl7GfPl-11" vertex="1"><mxGeometry width="30" height="30" as="geometry"/></mxCell><mxCell id="2dVK3EyHXPsoAWl7GfPl-13" value="" style="shape=partialRectangle;overflow=hidden;connectable=0;fillColor=none;top=0;left=0;bottom=0;right=0;align=left;spacingLeft=6;" parent="2dVK3EyHXPsoAWl7GfPl-11" vertex="1"><mxGeometry x="30" width="220" height="30" as="geometry"/></mxCell><mxCell id="2dVK3EyHXPsoAWl7GfPl-18" value="" style="edgeStyle=entityRelationEdgeStyle;fontSize=12;html=1;endArrow=ERzeroToMany;startArrow=ERoneToMany;entryX=0;entryY=0.5;entryDx=0;entryDy=0;exitX=1;exitY=0.5;exitDx=0;exitDy=0;startFill=0;endFill=1;" parent="1" source="2dVK3EyHXPsoAWl7GfPl-5" target="2dVK3EyHXPsoAWl7GfPl-23" edge="1"><mxGeometry width="100" height="100" relative="1" as="geometry"><mxPoint x="220" y="330" as="sourcePoint"/><mxPoint x="320" y="230" as="targetPoint"/></mxGeometry></mxCell><mxCell id="2dVK3EyHXPsoAWl7GfPl-22" value="" style="edgeStyle=entityRelationEdgeStyle;fontSize=12;html=1;endArrow=ERzeroToMany;startArrow=ERmandOne;entryX=0;entryY=0.5;entryDx=0;entryDy=0;exitX=1;exitY=0.5;exitDx=0;exitDy=0;startFill=0;endFill=1;" parent="1" source="C-vyLk0tnHw3VtMMgP7b-14" target="2dVK3EyHXPsoAWl7GfPl-19" edge="1"><mxGeometry width="100" height="100" relative="1" as="geometry"><mxPoint x="250" y="320" as="sourcePoint"/><mxPoint x="320" y="230" as="targetPoint"/></mxGeometry></mxCell><mxCell id="2dVK3EyHXPsoAWl7GfPl-29" value="" style="edgeStyle=entityRelationEdgeStyle;fontSize=12;html=1;endArrow=ERzeroToMany;startArrow=ERmandOne;exitX=1;exitY=0.5;exitDx=0;exitDy=0;entryX=0;entryY=0.5;entryDx=0;entryDy=0;" parent="1" source="C-vyLk0tnHw3VtMMgP7b-24" target="2dVK3EyHXPsoAWl7GfPl-26" edge="1"><mxGeometry width="100" height="100" relative="1" as="geometry"><mxPoint x="250" y="390" as="sourcePoint"/><mxPoint x="350" y="290" as="targetPoint"/></mxGeometry></mxCell></root></mxGraphModel></diagram></mxfile>